<?xml version="1.0" encoding="UTF-8"?>
<svg id="Layer_1" xmlns="http://www.w3.org/2000/svg" xmlns:xlink="http://www.w3.org/1999/xlink" version="1.1" viewBox="0 0 2043 418">
  <!-- Generator: Adobe Illustrator 30.5.1, SVG Export Plug-In . SVG Version: 2.1.4 Build 3)  -->
  <defs>
    <style>
      .st0, .st1, .st2, .st3, .st4 {
        isolation: isolate;
      }

      .st5 {
        stroke: #fabd2f;
        stroke-width: 22px;
      }

      .st5, .st6 {
        fill: none;
        stroke-linecap: round;
        stroke-linejoin: round;
      }

      .st1 {
        fill: #928374;
      }

      .st1, .st2, .st3, .st4 {
        font-family: JetBrainsMono-Bold, 'JetBrains Mono';
        font-size: 155px;
        font-weight: 700;
      }

      .st2 {
        fill: #fabd2f;
      }

      .st3 {
        fill: #8ec07c;
      }

      .st6 {
        stroke: url(#linear-gradient);
        stroke-width: 32px;
      }

      .st4 {
        fill: #d5c4a1;
      }
    </style>
    <linearGradient id="linear-gradient" x1="-10.9" y1="480.4" x2="593.1" y2="98.4" gradientTransform="translate(0 540) scale(1 -1)" gradientUnits="userSpaceOnUse">
      <stop offset="0" stop-color="#fabd2f"/>
      <stop offset="1" stop-color="#8ec07c"/>
    </linearGradient>
  </defs>
  <g id="cloud-prisma-airs-sdk-icon">
    <path class="st6" d="M199,397h-69c-63,0-114-51-114-114s51-114,114-114c8-86,77-153,165-153s174,78,174,174c27-21,67-23,99-1,41,29,62,76,52,125-10,50-50,83-106,83h-242"/>
    <path class="st5" d="M275,247"/>
    <path class="st5" d="M370,248"/>
  </g>
  <g class="st0">
    <text class="st4" transform="translate(648 356)"><tspan x="0" y="0">prisma-</tspan></text>
    <text class="st2" transform="translate(1298.9901 356)"><tspan x="0" y="0">airs</tspan></text>
    <text class="st1" transform="translate(1670.9844 356)"><tspan x="0" y="0">-</tspan></text>
    <text class="st3" transform="translate(1763.983 356)"><tspan x="0" y="0">sdk</tspan></text>
  </g>
</svg>