<?xml version="1.0" encoding="UTF-8"?>
<svg id="Layer_1" data-name="Layer 1" xmlns="http://www.w3.org/2000/svg" viewBox="0 0 241.4 263.02">
  <g fill="#ffffff">
    <path d="M54.17,245.09H0s6.37-11.77,6.37-11.77c1.1-1.42,2-2.9,2.51-4.66l9.51-16.93,22.44-40.8c1.92-.07,3.24.79,4.69,1.95l37.97,18.54-29.32,53.66Z"/>
    <polygon points="187.4 245.18 158.24 191.48 186.33 177.77 200.72 171.16 241.4 245.02 187.4 245.18"/>
    <path d="M162.32,210.7l9.79,17.41c-14.83,14.8-32,26.37-51.33,34.9-19-8.51-36.52-20.06-50.98-35l9.51-17.32c11.14,12.22,23.92,22.11,38.49,29.46,2.09,2.04,4.03,1.28,6.24.08,14.21-7.71,27.08-16.95,38.29-29.53Z"/>
  </g>
  <g fill="#ffffff">
    <path d="M207.9,172.79l-10.61-18.71c-1.2-2.12-1.99-3.15-1.23-5.73,4.68-15.93,6.85-32.37,7.7-48.99.1-1.93-.79-3.67.28-5.44l-.09-15.72-19.26-7.34c4.82-5.18,9.15-10.44,13.6-16.13l24.3,9.22c.96,1.97,1.13,4.22,1.11,6.55l-.21,25.39c-.01,1.53-.94,14.45-1.14,16.68-1.89,20.69-6.1,40.89-14.43,60.21Z"/>
    <path d="M166.23,63.73c-3.41-1.18-6.33-2.08-9.29-3.52-5.11-1.67-9.93-3.33-14.8-5.66l-15.56-28.5c-.32-.59-.56-1.2-.45-1.6.21-.75,13.78-6.75,16.15-7.06l-.52,7.51-10.05,4.55,48.87,18.63c-4.68,5.88-9.29,10.55-14.35,15.65Z"/>
  </g>
  <polygon fill="#ffffff" points="169.17 29.1 160.28 20.11 151.36 29.16 145.87 23.45 154.63 14.63 145.92 5.78 151.31 .07 160.22 8.96 169.17 0 174.49 5.76 165.88 14.53 174.51 23.39 169.17 29.1"/>
  <g fill="#ffffff">
    <path d="M47.29,143.31l-3.27-.79,1.94,8.55-12.12,21.65c-5.84-13.63-9.55-27.44-11.94-41.86-3.9-22.68-3.87-43.67-3.3-66.68L113.92,28.21l-14.6,26.56-61.55,23.29c-.74,16.66.62,32.73,2.94,48.89.68,4.7,2.74,7.81,8.05,8.32,14.3,2.35,42.97-11.69,55.82-19.16,24.76-14.38,47.82-31.67,67.95-51.97,8.44-8.51,24.59-27.41,25.34-39.16.22-3.4-.44-6.14-3.53-7.95-5.96-3.49-10.22-1.67-16.1-2.58.06-2.57-.34-4.57.09-7.21,7.69,0,17.56-.49,23.74,5.2,4.38,4.03,5.66,10.45,4.03,16.19-1.23,4.33-2.39,8.62-4.73,12.55-11.23,18.85-27.09,35.67-44.93,49.72l41.65,75.41-10.68,5.22-28.8,13.84-15.51,7.56c-6.83,3.33-13.67,6.16-20.22,10.11-1.22.73-2.72.48-3.84-.17-4.48-2.58-8.99-4.36-13.62-6.58l-24.61-11.86-13.25-6.54-23.94-11.48,6.04-11.31c2.07-3.87,4.92-7.19,6.06-11.69-2.85-.25-5.67.57-8.45-.1Z"/>
    <path d="M137.21,88.88l-20.11,14.18c-1.57,1.11-2.89,2.3-4.82,2.87-8.04,5.03-15.97,9.76-24.58,13.79-7.49,3.6-14.66,6.75-23.39,8.98l18.78-33.76L120.64,27.02c1.66.62,1.75,2.38,2.5,3.71l7.8,13.9,16.43,29.97c.82,1.5,2.12,2.52,2.07,4.42l-12.23,9.86Z"/>
  </g>
</svg>
