<svg width="2172" height="724" viewBox="0 0 2172 724" fill="none" xmlns="http://www.w3.org/2000/svg" role="img" aria-labelledby="title desc">
  <title id="title">prisma-airs-sdk logo</title>
  <desc id="desc">A minimalist cloud icon with an AIRS prism, orbit, and SDK slash motif, followed by the prisma-airs-sdk wordmark, in the Gruvbox palette.</desc>
  <defs>
    <linearGradient id="cloudStroke" x1="100" y1="110" x2="704" y2="492" gradientUnits="userSpaceOnUse">
      <stop offset="0" stop-color="#fabd2f"/>
      <stop offset="1" stop-color="#8ec07c"/>
    </linearGradient>
  </defs>

  <!-- Icon: cloud + AIRS prism / orbit / spark / SDK slash -->
  <g id="cloud-prisma-airs-sdk-icon" stroke-linecap="round" stroke-linejoin="round">
    <path
      d="M283 490H214C151 490 100 439 100 376C100 313 151 262 214 262C222 176 291 109 379 109C476 109 553 187 553 283C580 262 620 260 652 282C693 311 714 358 704 407C694 457 654 490 598 490H356"
      stroke="url(#cloudStroke)"
      stroke-width="32"/>
    <path d="M319 424L405 240L492 424" stroke="#ebdbb2" stroke-width="34"/>
    <path d="M426 298L386 406" stroke="#fabd2f" stroke-width="22"/>
    <path d="M308 408C398 384 492 322 566 231" stroke="#8ec07c" stroke-width="16"/>
    <path d="M538 193L575 230M575 193L538 230" stroke="#8ec07c" stroke-width="16"/>
  </g>

  <!-- Wordmark: mono, gruvbox -->
  <text
    x="732"
    y="449"
    font-family="'JetBrains Mono', ui-monospace, 'SF Mono', Menlo, monospace"
    font-size="155"
    font-weight="700"
    letter-spacing="-6"
    dominant-baseline="alphabetic"><tspan fill="#d5c4a1">prisma-</tspan><tspan fill="#fabd2f">airs</tspan><tspan fill="#928374">-</tspan><tspan fill="#8ec07c">sdk</tspan></text>
</svg>
